HIERARCHY
ROOT Hips
{
	OFFSET	0.000000	0.000000	0.000000
	CHANNELS 6 Xposition Yposition Zposition Zrotation Xrotation Yrotation
	JOINT LeftUpLeg
	{
		OFFSET	12.811937	-7.635976	0.557276
		CHANNELS 3 Zrotation Xrotation Yrotation
		JOINT LeftLeg
		{
			OFFSET	-0.429270	-42.206159	-1.204951
			CHANNELS 3 Zrotation Xrotation Yrotation
			JOINT LeftFoot
			{
				OFFSET	-2.112259	-42.464481	-3.973220
				CHANNELS 3 Zrotation Xrotation Yrotation
				JOINT LeftFootHeel
				{
					OFFSET	0.387196	-5.329707	-3.419729
					CHANNELS 3 Zrotation Xrotation Yrotation
					End Site
					{
						OFFSET	0.327567	-0.000003	16.505428
					}
				}
			}
		}
	}
	JOINT RightUpLeg
	{
		OFFSET	-12.811937	-7.635976	0.557276
		CHANNELS 3 Zrotation Xrotation Yrotation
		JOINT RightLeg
		{
			OFFSET	0.429270	-42.206159	-1.204951
			CHANNELS 3 Zrotation Xrotation Yrotation
			JOINT RightFoot
			{
				OFFSET	2.112259	-42.464481	-3.973220
				CHANNELS 3 Zrotation Xrotation Yrotation
				JOINT RightFootHeel
				{
					OFFSET	-0.387198	-5.329707	-3.419729
					CHANNELS 3 Zrotation Xrotation Yrotation
					End Site
					{
						OFFSET	-0.327566	-0.000003	16.505428
					}
				}
			}
		}
	}
	JOINT Spine
	{
		OFFSET	0.000000	13.731315	-1.007646
		CHANNELS 3 Zrotation Xrotation Yrotation
		JOINT Spine1
		{
			OFFSET	0.000000	12.091746	-0.604589
			CHANNELS 3 Zrotation Xrotation Yrotation
			JOINT LeftShoulder
			{
				OFFSET	5.746115	20.990027	-0.833816
				CHANNELS 3 Zrotation Xrotation Yrotation
				JOINT LeftArm
				{
					OFFSET	10.881538	-1.359258	0.219250
					CHANNELS 3 Zrotation Xrotation Yrotation
					JOINT LeftForeArm
					{
						OFFSET	4.390314	-31.537147	0.202818
						CHANNELS 3 Zrotation Xrotation Yrotation
						JOINT LeftHand
						{
							OFFSET	3.168650	-24.865023	5.373370
							CHANNELS 3 Zrotation Xrotation Yrotation
							End Site
							{
								OFFSET	1.457528	-10.806075	2.170267
							}
						}
					}
				}
			}
			JOINT RightShoulder
			{
				OFFSET	-5.746115	20.990027	-0.833816
				CHANNELS 3 Zrotation Xrotation Yrotation
				JOINT RightArm
				{
					OFFSET	-10.881538	-1.359258	0.219250
					CHANNELS 3 Zrotation Xrotation Yrotation
					JOINT RightForeArm
					{
						OFFSET	-4.390314	-31.537147	0.202818
						CHANNELS 3 Zrotation Xrotation Yrotation
						JOINT RightHand
						{
							OFFSET	-3.168650	-24.865023	5.373370
							CHANNELS 3 Zrotation Xrotation Yrotation
							End Site
							{
								OFFSET	-1.457528	-10.806075	2.170267
							}
						}
					}
				}
			}
			JOINT Neck
			{
				OFFSET	0.000000	27.075639	0.680489
				CHANNELS 3 Zrotation Xrotation Yrotation
				JOINT Head
				{
					OFFSET	0.000000	12.391287	1.239129
					CHANNELS 3 Zrotation Xrotation Yrotation
					End Site
					{
						OFFSET	0.000000	13.818691	-0.105853
					}
				}
			}
		}
	}
}
MOTION
Frames:     19
Frame Time: 0.016667
0.660350	100.459874	-0.025946	-0.530874	-0.649847	-3.238993	-1.320509	2.144408	0.753141	2.843066	-1.588615	1.659457	-2.497481	0.628928	4.001599	0.	0.	0.	-0.466015	3.233751	6.830550	-0.445431	-1.220360	-6.094862	2.230621	-1.110910	-0.393056	0.	0.	0.	-0.000000	0.000001	-0.000000	-2.259021	8.902596	8.605639	5.958467	3.728245	-0.847876	46.758869	-2.479312	-25.343439	-69.132553	-27.651009	-72.619225	86.725143	-50.628838	31.262484	-4.881137	0.991234	-4.150652	-34.104286	8.108424	21.333366	56.132324	-20.796919	68.403770	-81.608482	-62.022598	-17.205263	-0.509783	1.005341	-14.260283	6.056412	-17.472799	-3.877257	
0.662047	100.460330	-0.034946	-0.533970	-0.649596	-3.284169	-1.319093	2.143294	0.798298	2.840942	-1.588218	1.640901	-2.495573	0.627664	4.020060	0.	0.	0.	-0.471178	3.240036	6.831124	-0.434832	-1.240126	-6.060928	2.224807	-1.098999	-0.382431	0.	0.	0.	-0.000000	-0.000000	-0.000001	-2.279635	8.901815	8.613849	5.965158	3.757426	-0.827567	46.767570	-2.483934	-25.308729	-69.138550	-27.623718	-72.665321	86.710403	-50.617378	31.227718	-4.879970	1.012542	-4.151522	-34.110104	8.057306	21.348436	56.136681	-20.790287	68.399849	-81.633682	-62.027817	-17.238255	-0.479882	1.024694	-14.248813	6.075433	-17.487379	-3.893417	
0.663046	100.460921	-0.040754	-0.536728	-0.649484	-3.306998	-1.317747	2.141628	0.804644	2.841974	-1.586222	1.657313	-2.495573	0.627664	4.020060	0.	0.	0.	-0.469708	3.239896	6.853958	-0.434832	-1.240126	-6.060927	2.224808	-1.098999	-0.382431	0.	0.	0.	0.000000	0.000000	-0.000001	-2.290267	8.902479	8.598562	5.965198	3.786693	-0.807145	46.782841	-2.496574	-25.369579	-69.140488	-27.675917	-72.660477	86.698036	-50.619698	31.209723	-4.884712	1.032718	-4.150031	-34.115894	8.009164	21.362497	56.138607	-20.774157	68.396904	-81.676949	-62.031956	-17.282118	-0.455927	1.045711	-14.236800	6.092154	-17.504030	-3.905748	
0.665338	100.461599	-0.048495	-0.540431	-0.649338	-3.337681	-1.317638	2.135864	0.764384	2.841784	-1.576720	1.687311	-2.491384	0.624871	4.060546	0.	0.	0.	-0.474123	3.247195	6.833974	-0.425451	-1.261827	-6.041831	2.221208	-1.085012	-0.350996	0.	0.	0.	-0.000000	-0.000000	-0.000001	-2.286055	8.903765	8.590538	5.950663	3.816037	-0.787770	46.794254	-2.504740	-25.381083	-69.171410	-27.686625	-72.677498	86.665314	-50.629440	31.162930	-4.904495	1.054654	-4.150500	-34.120800	7.960769	21.376865	56.140629	-20.761402	68.393593	-81.713715	-62.036308	-17.321634	-0.446644	1.068458	-14.227182	6.103762	-17.523491	-3.902830	
0.667359	100.462432	-0.057052	-0.544858	-0.649171	-3.374403	-1.315835	2.132510	0.765094	2.841553	-1.571873	1.701260	-2.489128	0.623370	4.082356	0.	0.	0.	-0.475882	3.251814	6.837989	-0.423474	-1.266501	-6.024160	2.223815	-1.085037	-0.335780	0.	0.	0.	-0.000000	-0.000000	0.000001	-2.283544	8.922744	8.591756	5.935426	3.825258	-0.768050	46.805660	-2.513586	-25.403515	-69.215065	-27.704494	-72.699501	86.637726	-50.626732	31.116102	-4.925640	1.059522	-4.156214	-34.124466	7.911777	21.391769	56.143246	-20.758505	68.388985	-81.732262	-62.041553	-17.349962	-0.438450	1.073695	-14.223451	6.105494	-17.548161	-3.867250	
0.668320	100.462820	-0.061004	-0.546916	-0.649088	-3.391475	-1.315015	2.130911	0.764967	2.841374	-1.569543	1.707333	-2.487988	0.622613	4.093356	0.	0.	0.	-0.476764	3.254027	6.839349	-0.422496	-1.268744	-6.015498	2.225038	-1.085054	-0.328648	0.	0.	0.	-0.000000	-0.000000	0.000001	-2.289648	8.935446	8.592686	5.934594	3.825461	-0.758125	46.811573	-2.518437	-25.418697	-69.239838	-27.714771	-72.711845	86.635529	-50.616604	31.102304	-4.929679	1.058215	-4.160528	-34.126469	7.889773	21.399225	56.144932	-20.758514	68.389717	-81.741394	-62.044170	-17.363945	-0.427018	1.072747	-14.220315	6.105437	-17.561453	-3.851230	
0.669522	100.463266	-0.066194	-0.548906	-0.649017	-3.408026	-1.315340	2.127150	0.734172	2.843127	-1.563549	1.743340	-2.486834	0.621851	4.104476	0.	0.	0.	-0.477787	3.256388	6.839310	-0.421374	-1.271158	-6.005706	2.226217	-1.085068	-0.321756	0.	0.	0.	0.000000	0.000001	-0.000000	-2.317524	8.941274	8.578723	5.954883	3.831205	-0.730947	46.818947	-2.535995	-25.470095	-69.259254	-27.755247	-72.698181	86.633049	-50.606728	31.089417	-4.917773	1.070855	-4.163811	-34.123425	7.852327	21.414129	56.139248	-20.760582	68.389481	-81.754532	-62.030537	-17.359470	-0.385794	1.085513	-14.192135	6.102380	-17.585390	-3.852631	
0.672527	100.464428	-0.077041	-0.555961	-0.648767	-3.466690	-1.310704	2.125484	0.785938	2.838464	-1.561735	1.705681	-2.482246	0.618795	4.148736	0.	0.	0.	-0.482507	3.266013	6.830472	-0.416682	-1.281012	-5.964992	2.230869	-1.085104	-0.294607	0.	0.	0.	0.000000	0.000001	0.000000	-2.324245	8.939945	8.617320	5.948302	3.871355	-0.737057	46.831100	-2.616285	-25.512953	-69.355644	-27.745632	-72.698181	86.549454	-50.522800	30.995495	-4.927280	1.093411	-4.179668	-34.150963	7.834044	21.421371	56.158684	-20.769388	68.417465	-81.774704	-61.999035	-17.332850	-0.367844	1.105711	-14.192554	6.131844	-17.593328	-3.910099	
0.673058	100.464467	-0.077162	-0.556660	-0.648744	-3.472502	-1.310221	2.125371	0.791745	2.836064	-1.561276	1.684741	-2.480086	0.617362	4.169567	0.	0.	0.	-0.485410	3.269852	6.810020	-0.414722	-1.284900	-5.948168	2.232511	-1.085115	-0.285023	0.	0.	0.	-0.000000	-0.000000	0.000001	-2.324459	8.939730	8.623191	5.948301	3.871356	-0.737057	46.830246	-2.673206	-25.571054	-69.399399	-27.746815	-72.672905	86.481590	-50.466454	30.939367	-4.930311	1.099092	-4.187771	-34.164242	7.846573	21.414063	56.162609	-20.771221	68.429108	-81.785934	-61.988045	-17.308678	-0.351492	1.130695	-14.212647	6.143982	-17.612347	-3.926585	
0.673206	100.464409	-0.076592	-0.556660	-0.648744	-3.472502	-1.310221	2.125371	0.791745	2.834879	-1.561059	1.674408	-2.479019	0.616665	4.179849	0.	0.	0.	-0.486124	3.270702	6.804262	-0.413985	-1.285871	-5.942374	2.232511	-1.085115	-0.285023	0.	0.	0.	-0.000000	-0.000000	0.000001	-2.324459	8.939730	8.623191	5.948301	3.871356	-0.737057	46.829735	-2.700894	-25.597033	-69.422356	-27.744427	-72.662758	86.460754	-50.448879	30.921804	-4.936154	1.110048	-4.203404	-34.159435	7.847908	21.406870	56.158714	-20.767565	68.440857	-81.791504	-61.986271	-17.295902	-0.347287	1.136612	-14.212846	6.149244	-17.615459	-3.946634	
0.673352	100.464351	-0.076030	-0.556660	-0.648744	-3.472502	-1.310221	2.125371	0.791745	2.833722	-1.560838	1.664319	-2.477978	0.615975	4.189886	0.	0.	0.	-0.486124	3.270702	6.804262	-0.413985	-1.285871	-5.942374	2.232511	-1.085115	-0.285023	0.	0.	0.	-0.000000	-0.000000	0.000001	-2.332608	8.939256	8.623331	5.956250	3.870737	-0.735859	46.828548	-2.752553	-25.642569	-69.440277	-27.752924	-72.621269	86.453033	-50.439426	30.914799	-4.939302	1.130181	-4.232248	-34.149303	7.833067	21.405804	56.154858	-20.763174	68.451591	-81.795204	-61.973831	-17.262123	-0.339279	1.135865	-14.211727	6.156988	-17.611799	-3.967896	
0.669980	100.463905	-0.066552	-0.556660	-0.648744	-3.472502	-1.306409	2.136231	0.769982	2.827224	-1.569963	1.658948	-2.475144	0.614097	4.217257	0.	0.	0.	-0.486124	3.270702	6.804262	-0.413985	-1.285871	-5.942374	2.232511	-1.085115	-0.285023	0.	0.	0.	-0.000000	-0.000000	0.000001	-2.374846	8.940472	8.618429	5.992172	3.882528	-0.736232	46.833179	-2.803693	-25.664961	-69.514259	-27.727034	-72.635544	86.429642	-50.411152	30.893742	-4.909233	1.142051	-4.250381	-34.142136	7.853072	21.382034	56.150600	-20.770014	68.472397	-81.781372	-61.998974	-17.232969	-0.298435	1.128346	-14.200300	6.161127	-17.561253	-3.974620	
0.668018	100.464002	-0.063643	-0.558524	-0.648701	-3.487907	-1.302391	2.143784	0.768380	2.823640	-1.576687	1.665507	-2.474041	0.613373	4.227903	0.	0.	0.	-0.487171	3.273030	6.803407	-0.411887	-1.288599	-5.926011	2.232511	-1.085115	-0.285024	0.	0.	0.	0.000000	0.000001	0.000001	-2.388154	8.950302	8.613317	5.997579	3.888925	-0.723639	46.839016	-2.819714	-25.668974	-69.565025	-27.711357	-72.664566	86.415726	-50.392769	30.879179	-4.904019	1.137880	-4.242953	-34.144737	7.867572	21.385082	56.165062	-20.795704	68.475273	-81.743797	-62.027153	-17.200230	-0.287980	1.116060	-14.177700	6.159322	-17.536911	-3.968758	
0.668730	100.464409	-0.067587	-0.560593	-0.648656	-3.504967	-1.301094	2.143229	0.781980	2.823870	-1.576269	1.668939	-2.474041	0.613373	4.227904	0.	0.	0.	-0.488649	3.275982	6.799894	-0.409229	-1.292047	-5.905303	2.232511	-1.085115	-0.285023	0.	0.	0.	0.000000	0.000001	-0.000001	-2.401482	8.949944	8.612238	6.005053	3.903542	-0.713419	46.847256	-2.826749	-25.702873	-69.612961	-27.725868	-72.691208	86.403038	-50.374275	30.863108	-4.902037	1.152814	-4.249739	-34.141861	7.864323	21.394388	56.172302	-20.806276	68.496552	-81.738174	-62.015053	-17.166401	-0.275997	1.113809	-14.157413	6.156237	-17.500534	-3.962469	
0.669012	100.464583	-0.069152	-0.561451	-0.648633	-3.512011	-1.300500	2.143099	0.789020	2.823871	-1.576269	1.668939	-2.474041	0.613373	4.227904	0.	0.	0.	-0.489463	3.277426	6.796829	-0.407916	-1.293734	-5.895129	2.232511	-1.085115	-0.285023	0.	0.	0.	-0.000000	0.000001	0.000001	-2.414878	8.949753	8.604228	6.013458	3.916807	-0.705502	46.853233	-2.831145	-25.711372	-69.636261	-27.732735	-72.704308	86.396606	-50.365349	30.855736	-4.894228	1.158163	-4.245384	-34.140385	7.862267	21.398817	56.174992	-20.811655	68.508575	-81.738174	-62.015099	-17.166399	-0.263502	1.111711	-14.140247	6.156236	-17.500536	-3.962468	
0.669276	100.464738	-0.070623	-0.562256	-0.648612	-3.518622	-1.299942	2.142976	0.795625	2.823871	-1.576269	1.668939	-2.474041	0.613373	4.227904	0.	0.	0.	-0.493904	3.283064	6.764596	-0.402875	-1.300211	-5.856041	2.232511	-1.085115	-0.285023	0.	0.	0.	-0.000000	0.000000	0.000001	-2.437981	8.948359	8.607876	6.030970	3.934102	-0.711865	46.861782	-2.846493	-25.734659	-69.709061	-27.723913	-72.748886	86.389885	-50.337807	30.822039	-4.889116	1.187932	-4.285459	-34.126587	7.821727	21.418922	56.174423	-20.820381	68.511635	-81.734398	-62.022572	-17.167103	-0.241123	1.109430	-14.133671	6.156237	-17.500532	-3.962469	
0.668331	100.464661	-0.068513	-0.562256	-0.648612	-3.518622	-1.298852	2.145916	0.795333	2.822752	-1.579178	1.669337	-2.474041	0.613373	4.227904	0.	0.	0.	-0.496352	3.285922	6.745024	-0.400336	-1.303475	-5.836342	2.232511	-1.085115	-0.285024	0.	0.	0.	-0.000000	0.000000	0.000001	-2.453430	8.947465	8.608150	6.043013	3.945507	-0.718377	46.865742	-2.883976	-25.755396	-69.706558	-27.736984	-72.708221	86.390022	-50.340813	30.850435	-4.884951	1.207159	-4.313128	-34.115906	7.788468	21.432625	56.161411	-20.833693	68.480362	-81.722328	-62.049850	-17.172510	-0.225941	1.108022	-14.131548	6.156235	-17.500534	-3.962467	
0.667390	100.464583	-0.066397	-0.562256	-0.648612	-3.518622	-1.297766	2.148859	0.795046	2.821638	-1.582089	1.669726	-2.474041	0.613373	4.227903	0.	0.	0.	-0.498919	3.288895	6.724565	-0.397672	-1.306872	-5.815757	2.232511	-1.085115	-0.285022	0.	0.	0.	-0.000000	0.000000	0.000001	-2.460866	8.947032	8.608283	6.047167	3.957831	-0.726280	46.869770	-2.901533	-25.755302	-69.730911	-27.722826	-72.716118	86.394119	-50.330605	30.850899	-4.879397	1.209713	-4.316882	-34.119442	7.787014	21.433462	56.152431	-20.843309	68.464455	-81.723038	-62.067898	-17.187693	-0.218633	1.107346	-14.130526	6.156236	-17.500538	-3.962470	
0.667390	100.464583	-0.066397	-0.562256	-0.648612	-3.518622	-1.297766	2.148859	0.795046	2.821638	-1.582089	1.669726	-2.474041	0.613373	4.227903	0.	0.	0.	-0.501540	3.291934	6.703627	-0.394946	-1.310341	-5.794690	2.232511	-1.085115	-0.285023	0.	0.	0.	-0.000000	0.000000	0.000001	-2.481333	8.945845	8.608663	6.063975	3.969423	-0.732468	46.873806	-2.930850	-25.765905	-69.754051	-27.721640	-72.706184	86.393394	-50.319168	30.833605	-4.859283	1.207628	-4.314246	-34.140320	7.801013	21.428198	56.157917	-20.849010	68.478180	-81.742165	-62.073284	-17.216906	-0.198519	1.105482	-14.127730	6.156237	-17.500534	-3.962470	
